<?xml version="1.0" encoding="UTF-8" standalone="no"?>
<!-- Created with Inkscape (http://www.inkscape.org/) -->

<svg
   xmlns:dc="http://purl.org/dc/elements/1.1/"
   xmlns:cc="http://creativecommons.org/ns#"
   xmlns:rdf="http://www.w3.org/1999/02/22-rdf-syntax-ns#"
   xmlns:svg="http://www.w3.org/2000/svg"
   xmlns="http://www.w3.org/2000/svg"
   xmlns:sodipodi="http://sodipodi.sourceforge.net/DTD/sodipodi-0.dtd"
   xmlns:inkscape="http://www.inkscape.org/namespaces/inkscape"
   id="svg2"
   version="1.1"
   inkscape:version="0.47 r22583"
   width="460.54126"
   height="117.68"
   xml:space="preserve"
   sodipodi:docname="FP.svg"><metadata
     id="metadata8"><rdf:RDF><cc:Work
         rdf:about=""><dc:format>image/svg+xml</dc:format><dc:type
           rdf:resource="http://purl.org/dc/dcmitype/StillImage" /><dc:title></dc:title></cc:Work></rdf:RDF></metadata><defs
     id="defs6"><inkscape:perspective
       sodipodi:type="inkscape:persp3d"
       inkscape:vp_x="0 : 0.5 : 1"
       inkscape:vp_y="0 : 1000 : 0"
       inkscape:vp_z="1 : 0.5 : 1"
       inkscape:persp3d-origin="0.5 : 0.33333333 : 1"
       id="perspective10" /><inkscape:perspective
       id="perspective3084"
       inkscape:persp3d-origin="0.5 : 0.33333333 : 1"
       inkscape:vp_z="1 : 0.5 : 1"
       inkscape:vp_y="0 : 1000 : 0"
       inkscape:vp_x="0 : 0.5 : 1"
       sodipodi:type="inkscape:persp3d" /></defs><sodipodi:namedview
     pagecolor="#ffffff"
     bordercolor="#666666"
     borderopacity="1"
     objecttolerance="10"
     gridtolerance="10"
     guidetolerance="10"
     inkscape:pageopacity="0"
     inkscape:pageshadow="2"
     inkscape:window-width="1280"
     inkscape:window-height="725"
     id="namedview4"
     showgrid="false"
     inkscape:zoom="1.7403294"
     inkscape:cx="159.13655"
     inkscape:cy="40.306828"
     inkscape:window-x="0"
     inkscape:window-y="24"
     inkscape:window-maximized="1"
     inkscape:current-layer="g12" /><g
     id="g12"
     inkscape:groupmode="layer"
     inkscape:label="FP"
     transform="matrix(1.25,0,0,-1.25,1.5201904,108.00306)"><g
       id="g14"><g
         id="g16"
         transform="translate(0,80.800003)"><path
           d="m 0.398,-0.398 8,0 0,-8 8,0 8,0 0,-8 8,0 0,-8 0,-8 8,0 0,-8 8,0 0,-8 0,-8 8,0 0,-8 8,0 0,-8 8,0 0,-8 8,0 8,0 8,0 8,0 0,8 8,0 0,8 8,0 0,8 8,0 0,8 0,8 8,0 0,8 8,0 0,8 0,8 8,0 0,8 8,0 8,0 8,0 8,0 8,0 0,-8 8,0 0,-8 0,-8 8,0 0,-8 8,0 0,-8 0,-8 8,0 0,-8 8,0 0,-8 8,0 0,-8 8,0 8,0 8,0 8,0 0,8 8,0 0,8 8,0 0,8 0,8 8,0 0,8 8,0 0,8 8,0 0,8 0,8 8,0 0,8 8,0 8,0 8,0 8,0 8,0 0,-8 0,-8"
           style="fill:none;stroke:#000000;stroke-width:0.80000001;stroke-linecap:butt;stroke-linejoin:miter;stroke-miterlimit:4;stroke-opacity:1;stroke-dasharray:none"
           id="path18" /></g><g
         id="g20"
         transform="translate(0,80.800003)"><path
           d="m 0.398,-0.398 8,0 16,-8 8,-8 16,-40 24,-24 32,0 24,24 16,40 8,8 40,0 8,-8 16,-40 24,-24 32,0 16,16 24,48 8,8 40,0 0,-16"
           style="fill:none;stroke:#ff0000;stroke-width:0.80000001;stroke-linecap:butt;stroke-linejoin:miter;stroke-miterlimit:4;stroke-opacity:1;stroke-dasharray:none"
           id="path22" /></g></g></g></svg>