<?xml version="1.0" encoding="UTF-8" standalone="no"?>
<!-- Created with Inkscape (http://www.inkscape.org/) -->

<svg
   xmlns:dc="http://purl.org/dc/elements/1.1/"
   xmlns:cc="http://creativecommons.org/ns#"
   xmlns:rdf="http://www.w3.org/1999/02/22-rdf-syntax-ns#"
   xmlns:svg="http://www.w3.org/2000/svg"
   xmlns="http://www.w3.org/2000/svg"
   xmlns:sodipodi="http://sodipodi.sourceforge.net/DTD/sodipodi-0.dtd"
   xmlns:inkscape="http://www.inkscape.org/namespaces/inkscape"
   width="575.85712"
   height="356.57144"
   id="svg7400"
   version="1.1"
   inkscape:version="0.48.5 r10040"
   sodipodi:docname="Nouveau document 3">
  <defs
     id="defs3" />
  <sodipodi:namedview
     inkscape:document-units="mm"
     id="base"
     pagecolor="#ffffff"
     bordercolor="#666666"
     borderopacity="1.0"
     inkscape:pageopacity="0.0"
     inkscape:pageshadow="2"
     inkscape:zoom="1.3998294"
     inkscape:cx="287.91518"
     inkscape:cy="178.29408"
     inkscape:current-layer="layer1"
     showgrid="false"
     units="mm"
     fit-margin-top="0"
     fit-margin-left="0"
     fit-margin-right="0"
     fit-margin-bottom="0" />
  <metadata
     id="metadata4">
    <rdf:RDF>
      <cc:Work
         rdf:about="">
        <dc:format>image/svg+xml</dc:format>
        <dc:type
           rdf:resource="http://purl.org/dc/dcmitype/StillImage" />
        <dc:title></dc:title>
      </cc:Work>
    </rdf:RDF>
  </metadata>
  <g
     inkscape:label="Layer 1"
     inkscape:groupmode="layer"
     id="layer1"
     transform="translate(-93.15625,-139.08483)">
    <path
       style="fill:none;stroke:#838383;stroke-width:7.08661413;stroke-linecap:butt;stroke-linejoin:miter;stroke-miterlimit:4;stroke-opacity:1;stroke-dasharray:28.34645669, 7.08661417;stroke-dashoffset:0"
       d="m 120,322.36219 62.85714,132.85714"
       id="path7983"
       inkscape:connector-curvature="0"
       sodipodi:nodetypes="cc" />
    <path
       style="fill:none;stroke:#838383;stroke-width:7.08661413;stroke-linecap:butt;stroke-linejoin:miter;stroke-miterlimit:4;stroke-opacity:1;stroke-dasharray:28.34645669, 7.08661417;stroke-dashoffset:0"
       d="M 124.15389,301.97697 287.53346,166.10079"
       id="path7983-2"
       inkscape:connector-curvature="0"
       sodipodi:nodetypes="cc" />
    <path
       style="fill:none;stroke:#838383;stroke-width:7.08661413;stroke-linecap:butt;stroke-linejoin:miter;stroke-miterlimit:4;stroke-opacity:1;stroke-dasharray:28.34645669, 7.08661417;stroke-dashoffset:0"
       d="M 206.99649,472.20842 399.16892,413.61833"
       id="path7983-4"
       inkscape:connector-curvature="0"
       sodipodi:nodetypes="cc" />
    <path
       style="fill:none;stroke:#838383;stroke-width:7.08661413;stroke-linecap:butt;stroke-linejoin:miter;stroke-miterlimit:4;stroke-opacity:1;stroke-dasharray:28.34645669, 7.08661417;stroke-dashoffset:0"
       d="m 308.5292,170.64113 72.45476,111.13622"
       id="path7983-0"
       inkscape:connector-curvature="0"
       sodipodi:nodetypes="cc" />
    <path
       style="fill:none;stroke:#838383;stroke-width:7.08661413;stroke-linecap:butt;stroke-linejoin:miter;stroke-miterlimit:4;stroke-opacity:1;stroke-dasharray:28.34645669, 7.08661417;stroke-dashoffset:0"
       d="M 199.92456,458.06457 378.9634,304.00341"
       id="path7983-43"
       inkscape:connector-curvature="0"
       sodipodi:nodetypes="cc" />
    <path
       style="fill:none;stroke:#838383;stroke-width:7.08661413;stroke-linecap:butt;stroke-linejoin:miter;stroke-miterlimit:4;stroke-opacity:1;stroke-dasharray:28.34645669, 7.08661417;stroke-dashoffset:0"
       d="M 505.53296,209.53675 401.69461,286.82872"
       id="path7983-00"
       inkscape:connector-curvature="0"
       sodipodi:nodetypes="cc" />
    <path
       style="fill:none;stroke:#838383;stroke-width:7.08661413;stroke-linecap:butt;stroke-linejoin:miter;stroke-miterlimit:4;stroke-opacity:1;stroke-dasharray:28.34645669, 7.08661417;stroke-dashoffset:0"
       d="M 514.1203,211.05217 425.43609,398.46419"
       id="path7983-00-8"
       inkscape:connector-curvature="0"
       sodipodi:nodetypes="cc" />
    <path
       style="fill:none;stroke:#838383;stroke-width:7.08661413;stroke-linecap:butt;stroke-linejoin:miter;stroke-miterlimit:4;stroke-opacity:1;stroke-dasharray:28.34645669, 7.08661417;stroke-dashoffset:0"
       d="M 544.42857,372.19114 428.97205,408.0618"
       id="path7983-00-1"
       inkscape:connector-curvature="0"
       sodipodi:nodetypes="cc" />
    <path
       style="fill:none;stroke:#838383;stroke-width:7.08661413;stroke-linecap:butt;stroke-linejoin:miter;stroke-miterlimit:4;stroke-opacity:1;stroke-dasharray:28.34645669, 7.08661417;stroke-dashoffset:0"
       d="m 602.51943,463.11595 -40.69613,-83.847"
       id="path7983-00-9"
       inkscape:connector-curvature="0"
       sodipodi:nodetypes="cc" />
    <path
       style="fill:none;stroke:#838383;stroke-width:7.08661413;stroke-linecap:butt;stroke-linejoin:miter;stroke-miterlimit:4;stroke-opacity:1;stroke-dasharray:28.34645669, 7.08661417;stroke-dashoffset:0"
       d="M 592.92181,478.27009 420.38471,420.18511"
       id="path7983-00-3"
       inkscape:connector-curvature="0"
       sodipodi:nodetypes="cc" />
    <path
       style="fill:none;stroke:#838383;stroke-width:7.08661413;stroke-linecap:butt;stroke-linejoin:miter;stroke-miterlimit:4;stroke-opacity:1;stroke-dasharray:28.34645669, 7.08661417;stroke-dashoffset:0"
       d="M 646.93566,242.57995 612.84222,461.60642"
       id="path7983-00-6"
       inkscape:connector-curvature="0"
       sodipodi:nodetypes="cc" />
    <path
       style="fill:none;stroke:#838383;stroke-width:7.08661413;stroke-linecap:butt;stroke-linejoin:miter;stroke-miterlimit:4;stroke-opacity:1;stroke-dasharray:28.34645669, 7.08661417;stroke-dashoffset:0"
       d="M 634.27386,225.67143 528.98934,202.47071"
       id="path7983-00-83"
       inkscape:connector-curvature="0"
       sodipodi:nodetypes="cc" />
    <path
       style="fill:none;stroke:#838383;stroke-width:7.08661413;stroke-linecap:butt;stroke-linejoin:miter;stroke-miterlimit:4;stroke-opacity:1;stroke-dasharray:28.34645669, 7.08661417;stroke-dashoffset:0"
       d="m 638.41923,237.19298 -70.9772,115.15373"
       id="path7983-00-7"
       inkscape:connector-curvature="0"
       sodipodi:nodetypes="cc" />
    <path
       sodipodi:type="arc"
       style="fill:none;stroke:#3bc47b;stroke-width:8;stroke-miterlimit:4;stroke-opacity:1;stroke-dasharray:none;stroke-dashoffset:0"
       id="path7406"
       sodipodi:cx="112.14286"
       sodipodi:cy="311.64789"
       sodipodi:rx="15"
       sodipodi:ry="15"
       d="m 127.14286,311.64789 c 0,8.28427 -6.71573,15 -15,15 -8.28427,0 -15,-6.71573 -15,-15 0,-8.28427 6.71573,-15 15,-15 8.28427,0 15,6.71573 15,15 z" />
    <path
       transform="translate(186.42857,-153.57142)"
       sodipodi:type="arc"
       style="fill:none;stroke:#3bc47b;stroke-width:8;stroke-miterlimit:4;stroke-opacity:1;stroke-dasharray:none;stroke-dashoffset:0"
       id="path7406-7"
       sodipodi:cx="112.14286"
       sodipodi:cy="311.64789"
       sodipodi:rx="15"
       sodipodi:ry="15"
       d="m 127.14286,311.64789 c 0,8.28427 -6.71573,15 -15,15 -8.28427,0 -15,-6.71573 -15,-15 0,-8.28427 6.71573,-15 15,-15 8.28427,0 15,6.71573 15,15 z" />
    <path
       transform="translate(300.71428,96.42858)"
       sodipodi:type="arc"
       style="fill:none;stroke:#3bc47b;stroke-width:8;stroke-miterlimit:4;stroke-opacity:1;stroke-dasharray:none;stroke-dashoffset:0"
       id="path7406-5"
       sodipodi:cx="112.14286"
       sodipodi:cy="311.64789"
       sodipodi:rx="15"
       sodipodi:ry="15"
       d="m 127.14286,311.64789 c 0,8.28427 -6.71573,15 -15,15 -8.28427,0 -15,-6.71573 -15,-15 0,-8.28427 6.71573,-15 15,-15 8.28427,0 15,6.71573 15,15 z" />
    <path
       transform="translate(77.857144,157.85715)"
       sodipodi:type="arc"
       style="fill:none;stroke:#3bc47b;stroke-width:8;stroke-miterlimit:4;stroke-opacity:1;stroke-dasharray:none;stroke-dashoffset:0"
       id="path7406-1"
       sodipodi:cx="112.14286"
       sodipodi:cy="311.64789"
       sodipodi:rx="15"
       sodipodi:ry="15"
       d="m 127.14286,311.64789 c 0,8.28427 -6.71573,15 -15,15 -8.28427,0 -15,-6.71573 -15,-15 0,-8.28427 6.71573,-15 15,-15 8.28427,0 15,6.71573 15,15 z" />
    <path
       transform="translate(277.85714,-16.428563)"
       sodipodi:type="arc"
       style="fill:none;stroke:#3bc47b;stroke-width:8;stroke-miterlimit:4;stroke-opacity:1;stroke-dasharray:none;stroke-dashoffset:0"
       id="path7406-71"
       sodipodi:cx="112.14286"
       sodipodi:cy="311.64789"
       sodipodi:rx="15"
       sodipodi:ry="15"
       d="m 127.14286,311.64789 c 0,8.28427 -6.71573,15 -15,15 -8.28427,0 -15,-6.71573 -15,-15 0,-8.28427 6.71573,-15 15,-15 8.28427,0 15,6.71573 15,15 z" />
    <path
       transform="translate(402.14285,-113.57142)"
       sodipodi:type="arc"
       style="fill:none;stroke:#3bc47b;stroke-width:8;stroke-miterlimit:4;stroke-opacity:1;stroke-dasharray:none;stroke-dashoffset:0"
       id="path7406-3"
       sodipodi:cx="112.14286"
       sodipodi:cy="311.64789"
       sodipodi:rx="15"
       sodipodi:ry="15"
       d="m 127.14286,311.64789 c 0,8.28427 -6.71573,15 -15,15 -8.28427,0 -15,-6.71573 -15,-15 0,-8.28427 6.71573,-15 15,-15 8.28427,0 15,6.71573 15,15 z" />
    <path
       transform="translate(446.42857,55.000008)"
       sodipodi:type="arc"
       style="fill:none;stroke:#3bc47b;stroke-width:8;stroke-miterlimit:4;stroke-opacity:1;stroke-dasharray:none;stroke-dashoffset:0"
       id="path7406-0"
       sodipodi:cx="112.14286"
       sodipodi:cy="311.64789"
       sodipodi:rx="15"
       sodipodi:ry="15"
       d="m 127.14286,311.64789 c 0,8.28427 -6.71573,15 -15,15 -8.28427,0 -15,-6.71573 -15,-15 0,-8.28427 6.71573,-15 15,-15 8.28427,0 15,6.71573 15,15 z" />
    <path
       transform="translate(495,165.00001)"
       sodipodi:type="arc"
       style="fill:none;stroke:#3bc47b;stroke-width:8;stroke-miterlimit:4;stroke-opacity:1;stroke-dasharray:none;stroke-dashoffset:0"
       id="path7406-4"
       sodipodi:cx="112.14286"
       sodipodi:cy="311.64789"
       sodipodi:rx="15"
       sodipodi:ry="15"
       d="m 127.14286,311.64789 c 0,8.28427 -6.71573,15 -15,15 -8.28427,0 -15,-6.71573 -15,-15 0,-8.28427 6.71573,-15 15,-15 8.28427,0 15,6.71573 15,15 z" />
    <path
       transform="translate(537.85714,-83.57142)"
       sodipodi:type="arc"
       style="fill:none;stroke:#3bc47b;stroke-width:8;stroke-miterlimit:4;stroke-opacity:1;stroke-dasharray:none;stroke-dashoffset:0"
       id="path7406-54"
       sodipodi:cx="112.14286"
       sodipodi:cy="311.64789"
       sodipodi:rx="15"
       sodipodi:ry="15"
       d="m 127.14286,311.64789 c 0,8.28427 -6.71573,15 -15,15 -8.28427,0 -15,-6.71573 -15,-15 0,-8.28427 6.71573,-15 15,-15 8.28427,0 15,6.71573 15,15 z" />
  </g>
</svg>
