<?xml version="1.0" encoding="UTF-8" standalone="no"?>
<!-- Created with Inkscape (http://www.inkscape.org/) -->

<svg
   xmlns:dc="http://purl.org/dc/elements/1.1/"
   xmlns:cc="http://creativecommons.org/ns#"
   xmlns:rdf="http://www.w3.org/1999/02/22-rdf-syntax-ns#"
   xmlns:svg="http://www.w3.org/2000/svg"
   xmlns="http://www.w3.org/2000/svg"
   xmlns:sodipodi="http://sodipodi.sourceforge.net/DTD/sodipodi-0.dtd"
   xmlns:inkscape="http://www.inkscape.org/namespaces/inkscape"
   id="svg2"
   version="1.1"
   inkscape:version="0.47 r22583"
   width="460.99998"
   height="118"
   xml:space="preserve"
   sodipodi:docname="segMax.pdf"><metadata
     id="metadata8"><rdf:RDF><cc:Work
         rdf:about=""><dc:format>image/svg+xml</dc:format><dc:type
           rdf:resource="http://purl.org/dc/dcmitype/StillImage" /><dc:title></dc:title></cc:Work></rdf:RDF></metadata><defs
     id="defs6"><inkscape:perspective
       sodipodi:type="inkscape:persp3d"
       inkscape:vp_x="0 : 0.5 : 1"
       inkscape:vp_y="0 : 1000 : 0"
       inkscape:vp_z="1 : 0.5 : 1"
       inkscape:persp3d-origin="0.5 : 0.33333333 : 1"
       id="perspective10" /></defs><sodipodi:namedview
     pagecolor="#ffffff"
     bordercolor="#666666"
     borderopacity="1"
     objecttolerance="10"
     gridtolerance="10"
     guidetolerance="10"
     inkscape:pageopacity="0"
     inkscape:pageshadow="2"
     inkscape:window-width="1280"
     inkscape:window-height="725"
     id="namedview4"
     showgrid="false"
     inkscape:zoom="1.2039046"
     inkscape:cx="230.49998"
     inkscape:cy="59"
     inkscape:window-x="0"
     inkscape:window-y="24"
     inkscape:window-maximized="1"
     inkscape:current-layer="g12" /><g
     id="g12"
     inkscape:groupmode="layer"
     inkscape:label="segMax"
     transform="matrix(1.25,0,0,-1.25,0,118)"><g
       transform="translate(0,94.400002)"
       id="g16"
       style="stroke:#000000;stroke-opacity:1"><path
         id="path18"
         style="fill:none;stroke:#000000;stroke-width:0.80000000999999998;stroke-linecap:butt;stroke-linejoin:miter;stroke-miterlimit:4;stroke-opacity:1;stroke-dasharray:none"
         d="m 1.629,-5.938 8,0 0,-8 8,0 8,0 0,-8 8,0 0,-8 0,-8 8,0 0,-8 8,0 0,-8 0,-8 8,0 0,-8 8,0 0,-8 8,0 0,-8 8,0 8,0 8,0 8,0 0,8 8,0 0,8 8,0 0,8 8,0 0,8 0,8 8,0 0,8 8,0 0,8 0,8 8,0 0,8 8,0 8,0 8,0 8,0 8,0 0,-8 8,0 0,-8 0,-8 8,0 0,-8 8,0 0,-8 0,-8 8,0 0,-8 8,0 0,-8 8,0 0,-8 8,0 8,0 8,0 8,0 0,8 8,0 0,8 8,0 0,8 0,8 8,0 0,8 8,0 0,8 8,0 0,8 0,8 8,0 0,8 8,0 8,0 8,0 8,0 8,0 0,-8 0,-8" /></g><g
       id="g3742"><g
         style="stroke:#ff0000;stroke-opacity:1"
         id="g20"
         transform="translate(0,94.400002)"><path
           d="M 33.629,-29.938 0.398,-7.785 5.324,-0.398 38.555,-22.555 33.629,-29.938 z"
           style="fill:none;stroke:#ff0000;stroke-width:0.80000000999999998;stroke-linecap:butt;stroke-linejoin:miter;stroke-miterlimit:4;stroke-opacity:1;stroke-dasharray:none"
           id="path22" /></g><g
         style="stroke:#ff0000;stroke-opacity:1"
         id="g24"
         transform="translate(0,94.400002)"><path
           d="m 69.09,-89.184 -52.973,74.164 8.324,5.946 52.973,-74.16 -8.324,-5.95 z"
           style="fill:none;stroke:#ff0000;stroke-width:0.80000000999999998;stroke-linecap:butt;stroke-linejoin:miter;stroke-miterlimit:4;stroke-opacity:1;stroke-dasharray:none"
           id="path26" /></g><g
         style="stroke:#ff0000;stroke-opacity:1"
         id="g28"
         transform="translate(0,94.400002)"><path
           d="m 73.824,-92.184 -46.047,57.563 7.805,6.242 46.047,-57.559 -7.805,-6.246 z"
           style="fill:none;stroke:#ff0000;stroke-width:0.80000000999999998;stroke-linecap:butt;stroke-linejoin:miter;stroke-miterlimit:4;stroke-opacity:1;stroke-dasharray:none"
           id="path30" /></g><g
         style="stroke:#ff0000;stroke-opacity:1"
         id="g32"
         transform="translate(0,94.400002)"><path
           d="m 83.387,-93.742 -40,32 6.242,7.804 40,-32 -6.242,-7.804 z"
           style="fill:none;stroke:#ff0000;stroke-width:0.80000000999999998;stroke-linecap:butt;stroke-linejoin:miter;stroke-miterlimit:4;stroke-opacity:1;stroke-dasharray:none"
           id="path34" /></g><g
         style="stroke:#ff0000;stroke-opacity:1"
         id="g36"
         transform="translate(0,94.400002)"><path
           d="m 103.75,-93.469 -39.531,9.883 1.883,7.531 39.527,-9.883 -1.879,-7.531 z"
           style="fill:none;stroke:#ff0000;stroke-width:0.80000000999999998;stroke-linecap:butt;stroke-linejoin:miter;stroke-miterlimit:4;stroke-opacity:1;stroke-dasharray:none"
           id="path38" /></g><g
         style="stroke:#ff0000;stroke-opacity:1"
         id="g40"
         transform="translate(0,94.400002)"><path
           d="m 115.043,-83.586 -39.531,-9.883 -1.883,7.531 39.531,9.883 1.883,-7.531 z"
           style="fill:none;stroke:#ff0000;stroke-width:0.80000000999999998;stroke-linecap:butt;stroke-linejoin:miter;stroke-miterlimit:4;stroke-opacity:1;stroke-dasharray:none"
           id="path42" /></g><g
         style="stroke:#ff0000;stroke-opacity:1"
         id="g44"
         transform="translate(0,94.400002)"><path
           d="m 135.875,-61.742 -40,-32 -6.246,7.804 40,32 6.246,-7.804 z"
           style="fill:none;stroke:#ff0000;stroke-width:0.80000000999999998;stroke-linecap:butt;stroke-linejoin:miter;stroke-miterlimit:4;stroke-opacity:1;stroke-dasharray:none"
           id="path46" /></g><g
         style="stroke:#ff0000;stroke-opacity:1"
         id="g48"
         transform="translate(0,94.400002)"><path
           d="m 151.484,-34.621 -46.046,-57.563 -7.809,6.246 46.051,57.559 7.804,-6.242 z"
           style="fill:none;stroke:#ff0000;stroke-width:0.80000000999999998;stroke-linecap:butt;stroke-linejoin:miter;stroke-miterlimit:4;stroke-opacity:1;stroke-dasharray:none"
           id="path50" /></g><g
         style="stroke:#ff0000;stroke-opacity:1"
         id="g52"
         transform="translate(0,94.400002)"><path
           d="m 163.145,-15.02 -52.973,-74.164 -8.324,5.95 52.972,74.16 8.325,-5.946 z"
           style="fill:none;stroke:#ff0000;stroke-width:0.80000000999999998;stroke-linecap:butt;stroke-linejoin:miter;stroke-miterlimit:4;stroke-opacity:1;stroke-dasharray:none"
           id="path54" /></g><g
         style="stroke:#ff0000;stroke-opacity:1"
         id="g56"
         transform="translate(0,94.400002)"><path
           d="m 169.629,-13.938 -24,-16 -4.922,7.383 24,16 4.922,-7.383 z"
           style="fill:none;stroke:#ff0000;stroke-width:0.80000000999999998;stroke-linecap:butt;stroke-linejoin:miter;stroke-miterlimit:4;stroke-opacity:1;stroke-dasharray:none"
           id="path58" /></g><g
         style="stroke:#ff0000;stroke-opacity:1"
         id="g60"
         transform="translate(0,94.400002)"><path
           d="m 193.629,-13.938 -47.691,-9.539 -1.54,7.692 47.696,9.539 1.535,-7.692 z"
           style="fill:none;stroke:#ff0000;stroke-width:0.80000000999999998;stroke-linecap:butt;stroke-linejoin:miter;stroke-miterlimit:4;stroke-opacity:1;stroke-dasharray:none"
           id="path62" /></g><g
         style="stroke:#ff0000;stroke-opacity:1"
         id="g64"
         transform="translate(0,94.400002)"><path
           d="m 201.324,-23.477 -47.695,9.539 1.539,7.692 47.691,-9.539 -1.535,-7.692 z"
           style="fill:none;stroke:#ff0000;stroke-width:0.80000000999999998;stroke-linecap:butt;stroke-linejoin:miter;stroke-miterlimit:4;stroke-opacity:1;stroke-dasharray:none"
           id="path66" /></g><g
         style="stroke:#ff0000;stroke-opacity:1"
         id="g68"
         transform="translate(0,94.400002)"><path
           d="m 201.629,-29.938 -24,16 4.926,7.383 24,-16 -4.926,-7.383 z"
           style="fill:none;stroke:#ff0000;stroke-width:0.80000000999999998;stroke-linecap:butt;stroke-linejoin:miter;stroke-miterlimit:4;stroke-opacity:1;stroke-dasharray:none"
           id="path70" /></g><g
         style="stroke:#ff0000;stroke-opacity:1"
         id="g72"
         transform="translate(0,94.400002)"><path
           d="m 237.09,-89.184 -52.973,74.164 8.324,5.946 52.973,-74.16 -8.324,-5.95 z"
           style="fill:none;stroke:#ff0000;stroke-width:0.80000000999999998;stroke-linecap:butt;stroke-linejoin:miter;stroke-miterlimit:4;stroke-opacity:1;stroke-dasharray:none"
           id="path74" /></g><g
         style="stroke:#ff0000;stroke-opacity:1"
         id="g76"
         transform="translate(0,94.400002)"><path
           d="m 241.824,-92.184 -46.047,57.563 7.805,6.242 46.047,-57.559 -7.805,-6.246 z"
           style="fill:none;stroke:#ff0000;stroke-width:0.80000000999999998;stroke-linecap:butt;stroke-linejoin:miter;stroke-miterlimit:4;stroke-opacity:1;stroke-dasharray:none"
           id="path78" /></g><g
         style="stroke:#ff0000;stroke-opacity:1"
         id="g80"
         transform="translate(0,94.400002)"><path
           d="m 251.387,-93.742 -40,32 6.242,7.804 40,-32 -6.242,-7.804 z"
           style="fill:none;stroke:#ff0000;stroke-width:0.80000000999999998;stroke-linecap:butt;stroke-linejoin:miter;stroke-miterlimit:4;stroke-opacity:1;stroke-dasharray:none"
           id="path82" /></g><g
         style="stroke:#ff0000;stroke-opacity:1"
         id="g84"
         transform="translate(0,94.400002)"><path
           d="m 271.75,-93.469 -39.531,9.883 1.883,7.531 39.527,-9.883 -1.879,-7.531 z"
           style="fill:none;stroke:#ff0000;stroke-width:0.80000000999999998;stroke-linecap:butt;stroke-linejoin:miter;stroke-miterlimit:4;stroke-opacity:1;stroke-dasharray:none"
           id="path86" /></g><g
         style="stroke:#ff0000;stroke-opacity:1"
         id="g88"
         transform="translate(0,94.400002)"><path
           d="m 283.043,-83.586 -39.531,-9.883 -1.883,7.531 39.531,9.883 1.883,-7.531 z"
           style="fill:none;stroke:#ff0000;stroke-width:0.80000000999999998;stroke-linecap:butt;stroke-linejoin:miter;stroke-miterlimit:4;stroke-opacity:1;stroke-dasharray:none"
           id="path90" /></g><g
         style="stroke:#ff0000;stroke-opacity:1"
         id="g92"
         transform="translate(0,94.400002)"><path
           d="m 295.391,-69.617 -32,-24 -5.762,7.679 32,24 5.762,-7.679 z"
           style="fill:none;stroke:#ff0000;stroke-width:0.80000000999999998;stroke-linecap:butt;stroke-linejoin:miter;stroke-miterlimit:4;stroke-opacity:1;stroke-dasharray:none"
           id="path94" /></g><g
         style="stroke:#ff0000;stroke-opacity:1"
         id="g96"
         transform="translate(0,94.400002)"><path
           d="m 330.91,-14.898 -57.598,-76.801 -7.683,5.761 57.601,76.801 7.68,-5.761 z"
           style="fill:none;stroke:#ff0000;stroke-width:0.80000000999999998;stroke-linecap:butt;stroke-linejoin:miter;stroke-miterlimit:4;stroke-opacity:1;stroke-dasharray:none"
           id="path98" /></g><g
         style="stroke:#ff0000;stroke-opacity:1"
         id="g100"
         transform="translate(0,94.400002)"><path
           d="m 337.629,-13.938 -24,-16 -4.922,7.383 24,16 4.922,-7.383 z"
           style="fill:none;stroke:#ff0000;stroke-width:0.80000000999999998;stroke-linecap:butt;stroke-linejoin:miter;stroke-miterlimit:4;stroke-opacity:1;stroke-dasharray:none"
           id="path102" /></g><g
         style="stroke:#ff0000;stroke-opacity:1"
         id="g104"
         transform="translate(0,94.400002)"><path
           d="m 361.629,-13.938 -47.691,-9.539 -1.54,7.692 47.696,9.539 1.535,-7.692 z"
           style="fill:none;stroke:#ff0000;stroke-width:0.80000000999999998;stroke-linecap:butt;stroke-linejoin:miter;stroke-miterlimit:4;stroke-opacity:1;stroke-dasharray:none"
           id="path106" /></g><g
         style="stroke:#ff0000;stroke-opacity:1"
         id="g108"
         transform="translate(0,94.400002)"><path
           d="m 361.629,-21.938 -40,8 1.539,7.692 40,-8 -1.539,-7.692 z"
           style="fill:none;stroke:#ff0000;stroke-width:0.80000000999999998;stroke-linecap:butt;stroke-linejoin:miter;stroke-miterlimit:4;stroke-opacity:1;stroke-dasharray:none"
           id="path110" /></g><g
         style="stroke:#ff0000;stroke-opacity:1"
         id="g112"
         transform="translate(0,94.400002)"><path
           d="m 361.629,-29.938 -8,16 6.402,3.2 8,-16 -6.402,-3.2 z"
           style="fill:none;stroke:#ff0000;stroke-width:0.80000000999999998;stroke-linecap:butt;stroke-linejoin:miter;stroke-miterlimit:4;stroke-opacity:1;stroke-dasharray:none"
           id="path114" /></g></g></g></svg>