<?xml version="1.0" encoding="UTF-8" standalone="no"?>
<!-- Created with Inkscape (http://www.inkscape.org/) -->

<svg
   xmlns:dc="http://purl.org/dc/elements/1.1/"
   xmlns:cc="http://creativecommons.org/ns#"
   xmlns:rdf="http://www.w3.org/1999/02/22-rdf-syntax-ns#"
   xmlns:svg="http://www.w3.org/2000/svg"
   xmlns="http://www.w3.org/2000/svg"
   xmlns:sodipodi="http://sodipodi.sourceforge.net/DTD/sodipodi-0.dtd"
   xmlns:inkscape="http://www.inkscape.org/namespaces/inkscape"
   id="svg2"
   version="1.1"
   inkscape:version="0.47 r22583"
   width="563.94598"
   height="260.44748"
   xml:space="preserve"
   sodipodi:docname="segmentComputersHierarchy.eps"><metadata
     id="metadata8"><rdf:RDF><cc:Work
         rdf:about=""><dc:format>image/svg+xml</dc:format><dc:type
           rdf:resource="http://purl.org/dc/dcmitype/StillImage" /><dc:title></dc:title></cc:Work></rdf:RDF></metadata><defs
     id="defs6"><inkscape:perspective
       sodipodi:type="inkscape:persp3d"
       inkscape:vp_x="0 : 0.5 : 1"
       inkscape:vp_y="0 : 1000 : 0"
       inkscape:vp_z="1 : 0.5 : 1"
       inkscape:persp3d-origin="0.5 : 0.33333333 : 1"
       id="perspective10" /></defs><sodipodi:namedview
     pagecolor="#ffffff"
     bordercolor="#666666"
     borderopacity="1"
     objecttolerance="10"
     gridtolerance="10"
     guidetolerance="10"
     inkscape:pageopacity="0"
     inkscape:pageshadow="2"
     inkscape:window-width="1280"
     inkscape:window-height="725"
     id="namedview4"
     showgrid="false"
     inkscape:zoom="1.2684253"
     inkscape:cx="358.67251"
     inkscape:cy="81.071935"
     inkscape:window-x="0"
     inkscape:window-y="24"
     inkscape:window-maximized="1"
     inkscape:current-layer="g12" /><g
     id="g12"
     inkscape:groupmode="layer"
     inkscape:label="ink_ext_XXXXXX"
     transform="matrix(1.25,0,0,-1.25,-41.208356,615.97007)"><g
       id="g14"
       transform="scale(0.1,0.1)"><g
         id="g16"
         transform="scale(10,10)"><text
           transform="matrix(1,0,0,-1,192,479.999)"
           id="text18"><tspan
             style="font-size:17.2154007px;font-variant:normal;font-weight:normal;writing-mode:lr-tb;fill:#000000;fill-opacity:1;fill-rule:nonzero;stroke:none;font-family:CMR17;-inkscape-font-specification:CMR17"
             x="0 11.482672 20.262526 27.251978 35.136631 48.426922 55.416374 63.748425"
             y="0"
             sodipodi:role="line"
             id="tspan20">CSegment</tspan><tspan
             style="font-size:17.2154007px;font-variant:normal;font-weight:normal;writing-mode:lr-tb;fill:#000000;fill-opacity:1;fill-rule:nonzero;stroke:none;font-family:CMR17;-inkscape-font-specification:CMR17"
             x="-32 -20.517328 -10.377344 -4.2830925 0.00354222 8.3357954 12.622431 20.507084 24.793718 33.573574 40.563026 48.447678 61.737968 68.727417 77.059761 83.154015 94.636688 102.52134 115.81163 124.59148 133.37134 139.46559 146.45505"
             y="48"
             sodipodi:role="line"
             id="tspan22">CTrivialSegmentComputer</tspan><tspan
             style="font-size:17.2154007px;font-variant:normal;font-weight:normal;writing-mode:lr-tb;fill:#000000;fill-opacity:1;fill-rule:nonzero;stroke:none;font-family:CMR17;-inkscape-font-specification:CMR17"
             x="-32 -20.517328 -11.496479 -3.6118259 2.4824255 13.517589 21.402241 27.496492 36.276348 45.056202 52.028515 59.930477 73.203529 80.192986 88.525398 94.619652 106.10233 113.98698 127.27727 136.05711 144.83698 150.93123 157.92067"
             y="96"
             sodipodi:role="line"
             id="tspan24">CForwardSegmentComputer</tspan><tspan
             style="font-size:17.2154007px;font-variant:normal;font-weight:normal;writing-mode:lr-tb;fill:#000000;fill-opacity:1;fill-rule:nonzero;stroke:none;font-family:CMR17;-inkscape-font-specification:CMR17"
             x="64 75.482674 86.741547 91.028175 99.808029 104.09467 110.18892 117.17837 124.16782 130.26207 134.54871 142.43336 151.21321 159.09787 163.38451 172.16435 179.15381 187.03847 200.32875 207.31821 215.65038 221.74463 233.22729 241.11195 254.40224 263.1821 271.96194 278.05621 285.04565 -160 -148.51733 -136.36325 -128.03101 -119.25114 -111.36649 -98.076202 -93.789574 -86.800117 -78.020264 -71.030815 -63.14616 -49.855869 -42.866417 -34.533989 -28.439737 -16.957066 -9.0724125 4.2178764 12.99773 21.777584 27.871836 34.86129"
             y="144"
             sodipodi:role="line"
             id="tspan26">CBidirectionalSegmentComputerCDynamicSegmentComputer</tspan><tspan
             style="font-size:17.2154007px;font-variant:normal;font-weight:normal;writing-mode:lr-tb;fill:#000000;fill-opacity:1;fill-rule:nonzero;stroke:none;font-family:CMR17;-inkscape-font-specification:CMR17"
             x="-80 -68.517326 -56.363255 -48.031002 -39.251148 -31.366495 -18.076206 -13.789572 -6.8001194 4.4587526 8.7453871 17.525242 23.619493 30.608946 37.598396 43.69265 47.979282 55.863937 64.643791 72.528442 76.815079 85.594933 92.584389 100.46904 113.75933 120.74878 129.08086 135.17511 146.65778 154.54243 167.83272 176.61258 185.39243 191.48668 198.47614"
             y="192"
             sodipodi:role="line"
             id="tspan28">CDynamicBidrectionalSegmentComputer</tspan></text>
</g><path
         d="m 2240,4720 0,-240"
         style="fill:none;stroke:#000000;stroke-width:4;stroke-linecap:butt;stroke-linejoin:round;stroke-miterlimit:10;stroke-opacity:1;stroke-dasharray:none"
         id="path30" /><path
         d="m 2240,4720 -23.31,-70 46.62,0"
         style="fill:#000000;fill-opacity:1;fill-rule:evenodd;stroke:none"
         id="path32" /><path
         d="m 2240,4720 -23.31,-70 46.62,0 -23.31,70 z"
         style="fill:none;stroke:#000000;stroke-width:4;stroke-linecap:butt;stroke-linejoin:round;stroke-miterlimit:10;stroke-opacity:1;stroke-dasharray:none"
         id="path34" /><path
         d="m 2240,4240 0,-240"
         style="fill:none;stroke:#000000;stroke-width:4;stroke-linecap:butt;stroke-linejoin:round;stroke-miterlimit:10;stroke-opacity:1;stroke-dasharray:none"
         id="path36" /><path
         d="m 2240,4240 -23.31,-70 46.62,0"
         style="fill:#000000;fill-opacity:1;fill-rule:evenodd;stroke:none"
         id="path38" /><path
         d="m 2240,4240 -23.31,-70 46.62,0 -23.31,70 z"
         style="fill:none;stroke:#000000;stroke-width:4;stroke-linecap:butt;stroke-linejoin:round;stroke-miterlimit:10;stroke-opacity:1;stroke-dasharray:none"
         id="path40" /><path
         d="M 2240,3760 1120,3520"
         style="fill:none;stroke:#000000;stroke-width:4;stroke-linecap:butt;stroke-linejoin:round;stroke-miterlimit:10;stroke-opacity:1;stroke-dasharray:none"
         id="path42" /><path
         d="m 2240,3760 -73.33,8.13 9.77,-45.59"
         style="fill:#000000;fill-opacity:1;fill-rule:evenodd;stroke:none"
         id="path44" /><path
         d="m 2240,3760 -73.33,8.13 9.77,-45.59 63.56,37.46 z"
         style="fill:none;stroke:#000000;stroke-width:4;stroke-linecap:butt;stroke-linejoin:round;stroke-miterlimit:10;stroke-opacity:1;stroke-dasharray:none"
         id="path46" /><path
         d="M 2240,3760 3360,3520"
         style="fill:none;stroke:#000000;stroke-width:4;stroke-linecap:butt;stroke-linejoin:round;stroke-miterlimit:10;stroke-opacity:1;stroke-dasharray:none"
         id="path48" /><path
         d="m 2240,3760 63.56,-37.46 9.77,45.59"
         style="fill:#000000;fill-opacity:1;fill-rule:evenodd;stroke:none"
         id="path50" /><path
         d="m 2240,3760 63.56,-37.46 9.77,45.59 L 2240,3760 z"
         style="fill:none;stroke:#000000;stroke-width:4;stroke-linecap:butt;stroke-linejoin:round;stroke-miterlimit:10;stroke-opacity:1;stroke-dasharray:none"
         id="path52" /><path
         d="M 1120,3280 2240,3040"
         style="fill:none;stroke:#000000;stroke-width:4;stroke-linecap:butt;stroke-linejoin:round;stroke-miterlimit:10;stroke-opacity:1;stroke-dasharray:none"
         id="path54" /><path
         d="m 1120,3280 63.56,-37.46 9.77,45.59"
         style="fill:#000000;fill-opacity:1;fill-rule:evenodd;stroke:none"
         id="path56" /><path
         d="m 1120,3280 63.56,-37.46 9.77,45.59 L 1120,3280 z"
         style="fill:none;stroke:#000000;stroke-width:4;stroke-linecap:butt;stroke-linejoin:round;stroke-miterlimit:10;stroke-opacity:1;stroke-dasharray:none"
         id="path58" /><path
         d="M 3360,3280 2240,3040"
         style="fill:none;stroke:#000000;stroke-width:4;stroke-linecap:butt;stroke-linejoin:round;stroke-miterlimit:10;stroke-opacity:1;stroke-dasharray:none"
         id="path60" /><path
         d="m 3360,3280 -73.33,8.13 9.77,-45.59"
         style="fill:#000000;fill-opacity:1;fill-rule:evenodd;stroke:none"
         id="path62" /><path
         d="m 3360,3280 -73.33,8.13 9.77,-45.59 63.56,37.46 z"
         style="fill:none;stroke:#000000;stroke-width:4;stroke-linecap:butt;stroke-linejoin:round;stroke-miterlimit:10;stroke-opacity:1;stroke-dasharray:none"
         id="path64" /></g></g></svg>